# xmcd
#
# Track frame offsets: 
#        150
#        12823
#        27368
#        28561
#        45133
#        61226
#        72973
#        92434
#        110942
#        119462
#        133434
#        146424
#        161425
#
# Disc length: 2273 seconds
#
# Revision: 0
# Processed by: cddbd v1.5.2PL0 Copyright (c) Steve Scherf et al.
# Submitted via: ExactAudioCopy v1.3
#
DISCID=ab08df0d
DTITLE=Grant Arthur - A Very Grant Arthur Christmas 
DYEAR=1900
DGENRE=Folk
TTITLE0=The Joy Of Christmas
TTITLE1=Stuck On Christmas Island
TTITLE2=Yum Yum Xmas
TTITLE3=Christmas Blues
TTITLE4=Merry Bloody Christmas
TTITLE5=Santa Went Down To Georgia
TTITLE6=The Slugg´s Christmas Medley
TTITLE7=Santa´s Lament
TTITLE8=Samba Claus
TTITLE9=A Lonely Present
TTITLE10=What´s The Point?
TTITLE11=Christmas Prank
TTITLE12=Under The Mistletoe
EXTD=
EXTT0=
EXTT1=
EXTT2=
EXTT3=
EXTT4=
EXTT5=
EXTT6=
EXTT7=
EXTT8=
EXTT9=
EXTT10=
EXTT11=
EXTT12=
PLAYORDER=
